<mxfile host="app.diagrams.net" modified="2023-04-18T09:50:54.749Z" agent="Mozilla/5.0 (X11; Linux x86_64) AppleWebKit/537.36 (KHTML, like Gecko) Chrome/110.0.0.0 Safari/537.36" etag="lP7StYnOrDtzSX3CqkrR" version="21.1.5" type="device" pages="3">
  <diagram name="Page-1" id="zapa7KV8a7RlVslvvhAN">
    <mxGraphModel dx="609" dy="694" grid="1" gridSize="10" guides="1" tooltips="1" connect="1" arrows="1" fold="1" page="1" pageScale="1" pageWidth="827" pageHeight="1169" math="0" shadow="0">
      <root>
        <mxCell id="0" />
        <mxCell id="1" parent="0" />
        <mxCell id="bD8-YBU_n-V9kNYaD_5w-16" style="edgeStyle=orthogonalEdgeStyle;rounded=0;orthogonalLoop=1;jettySize=auto;html=1;entryX=-0.03;entryY=0.5;entryDx=0;entryDy=0;entryPerimeter=0;" parent="1" source="bD8-YBU_n-V9kNYaD_5w-4" target="bD8-YBU_n-V9kNYaD_5w-15" edge="1">
          <mxGeometry relative="1" as="geometry" />
        </mxCell>
        <mxCell id="bD8-YBU_n-V9kNYaD_5w-17" value="Συμπληρώνει πληροφορίες" style="edgeLabel;html=1;align=center;verticalAlign=middle;resizable=0;points=[];" parent="bD8-YBU_n-V9kNYaD_5w-16" vertex="1" connectable="0">
          <mxGeometry x="0.1359" y="1" relative="1" as="geometry">
            <mxPoint as="offset" />
          </mxGeometry>
        </mxCell>
        <mxCell id="bD8-YBU_n-V9kNYaD_5w-28" style="edgeStyle=none;shape=connector;rounded=0;orthogonalLoop=1;jettySize=auto;html=1;entryX=-0.01;entryY=0.45;entryDx=0;entryDy=0;entryPerimeter=0;labelBackgroundColor=default;strokeColor=default;fontFamily=Helvetica;fontSize=11;fontColor=default;endArrow=classic;" parent="1" source="bD8-YBU_n-V9kNYaD_5w-4" target="bD8-YBU_n-V9kNYaD_5w-25" edge="1">
          <mxGeometry relative="1" as="geometry" />
        </mxCell>
        <mxCell id="bD8-YBU_n-V9kNYaD_5w-29" value="&lt;div&gt;Επιλέγει tags και &lt;br&gt;&lt;/div&gt;&lt;div&gt;ολοκλήρωση δημιουργίας&lt;br&gt;&lt;/div&gt;" style="edgeLabel;html=1;align=center;verticalAlign=middle;resizable=0;points=[];fontSize=11;fontFamily=Helvetica;fontColor=default;" parent="bD8-YBU_n-V9kNYaD_5w-28" vertex="1" connectable="0">
          <mxGeometry x="0.282" y="1" relative="1" as="geometry">
            <mxPoint as="offset" />
          </mxGeometry>
        </mxCell>
        <mxCell id="bD8-YBU_n-V9kNYaD_5w-45" style="edgeStyle=none;shape=connector;rounded=0;orthogonalLoop=1;jettySize=auto;html=1;entryX=-0.01;entryY=0.425;entryDx=0;entryDy=0;entryPerimeter=0;labelBackgroundColor=default;strokeColor=default;fontFamily=Helvetica;fontSize=11;fontColor=default;endArrow=classic;" parent="1" source="bD8-YBU_n-V9kNYaD_5w-4" target="bD8-YBU_n-V9kNYaD_5w-42" edge="1">
          <mxGeometry relative="1" as="geometry" />
        </mxCell>
        <mxCell id="bD8-YBU_n-V9kNYaD_5w-46" value="&lt;div&gt;Επιβεβαιώνει&lt;/div&gt;&lt;div&gt;&amp;nbsp;ανάρτηση&lt;/div&gt;" style="edgeLabel;html=1;align=center;verticalAlign=middle;resizable=0;points=[];fontSize=11;fontFamily=Helvetica;fontColor=default;" parent="bD8-YBU_n-V9kNYaD_5w-45" vertex="1" connectable="0">
          <mxGeometry x="0.0767" relative="1" as="geometry">
            <mxPoint as="offset" />
          </mxGeometry>
        </mxCell>
        <mxCell id="bD8-YBU_n-V9kNYaD_5w-4" value="&amp;nbsp;Χειριστής " style="shape=umlActor;verticalLabelPosition=bottom;verticalAlign=top;html=1;outlineConnect=0;" parent="1" vertex="1">
          <mxGeometry x="110" y="80" width="50" height="100" as="geometry" />
        </mxCell>
        <mxCell id="bD8-YBU_n-V9kNYaD_5w-11" style="rounded=0;orthogonalLoop=1;jettySize=auto;html=1;exitX=0.75;exitY=0.1;exitDx=0;exitDy=0;exitPerimeter=0;" parent="1" source="bD8-YBU_n-V9kNYaD_5w-8" edge="1">
          <mxGeometry relative="1" as="geometry">
            <mxPoint x="110" y="200" as="targetPoint" />
          </mxGeometry>
        </mxCell>
        <mxCell id="bD8-YBU_n-V9kNYaD_5w-8" value="Απλός Χρήστης" style="shape=umlActor;verticalLabelPosition=bottom;verticalAlign=top;html=1;outlineConnect=0;" parent="1" vertex="1">
          <mxGeometry x="20" y="330" width="50" height="100" as="geometry" />
        </mxCell>
        <mxCell id="bD8-YBU_n-V9kNYaD_5w-12" style="rounded=0;orthogonalLoop=1;jettySize=auto;html=1;exitX=0.5;exitY=0;exitDx=0;exitDy=0;exitPerimeter=0;" parent="1" source="bD8-YBU_n-V9kNYaD_5w-9" edge="1">
          <mxGeometry relative="1" as="geometry">
            <mxPoint x="140" y="200" as="targetPoint" />
            <mxPoint x="150" y="310" as="sourcePoint" />
          </mxGeometry>
        </mxCell>
        <mxCell id="bD8-YBU_n-V9kNYaD_5w-9" value="Ξεναγός" style="shape=umlActor;verticalLabelPosition=bottom;verticalAlign=top;html=1;outlineConnect=0;" parent="1" vertex="1">
          <mxGeometry x="130" y="330" width="50" height="100" as="geometry" />
        </mxCell>
        <mxCell id="bD8-YBU_n-V9kNYaD_5w-13" style="rounded=0;orthogonalLoop=1;jettySize=auto;html=1;exitX=0.25;exitY=0.1;exitDx=0;exitDy=0;exitPerimeter=0;" parent="1" source="bD8-YBU_n-V9kNYaD_5w-10" edge="1">
          <mxGeometry relative="1" as="geometry">
            <mxPoint x="160" y="200" as="targetPoint" />
          </mxGeometry>
        </mxCell>
        <mxCell id="bD8-YBU_n-V9kNYaD_5w-10" value="&lt;div&gt;Πολιτιστικός&lt;/div&gt;&lt;div&gt;Οργανισμός&lt;/div&gt;" style="shape=umlActor;verticalLabelPosition=bottom;verticalAlign=top;html=1;outlineConnect=0;" parent="1" vertex="1">
          <mxGeometry x="230" y="330" width="50" height="100" as="geometry" />
        </mxCell>
        <mxCell id="bD8-YBU_n-V9kNYaD_5w-20" style="rounded=0;orthogonalLoop=1;jettySize=auto;html=1;exitX=1.01;exitY=0.525;exitDx=0;exitDy=0;exitPerimeter=0;" parent="1" source="bD8-YBU_n-V9kNYaD_5w-15" target="bD8-YBU_n-V9kNYaD_5w-19" edge="1">
          <mxGeometry relative="1" as="geometry">
            <mxPoint x="656" y="130" as="sourcePoint" />
          </mxGeometry>
        </mxCell>
        <mxCell id="bD8-YBU_n-V9kNYaD_5w-15" value="Οθόνη Δημιουργίας Εκδήλωσης" style="shape=umlBoundary;whiteSpace=wrap;html=1;" parent="1" vertex="1">
          <mxGeometry x="414" y="90" width="100" height="80" as="geometry" />
        </mxCell>
        <mxCell id="bD8-YBU_n-V9kNYaD_5w-22" style="rounded=0;orthogonalLoop=1;jettySize=auto;html=1;entryX=0.5;entryY=0;entryDx=0;entryDy=0;" parent="1" source="bD8-YBU_n-V9kNYaD_5w-19" target="bD8-YBU_n-V9kNYaD_5w-21" edge="1">
          <mxGeometry relative="1" as="geometry" />
        </mxCell>
        <mxCell id="bD8-YBU_n-V9kNYaD_5w-19" value="Φόρτωσε" style="ellipse;shape=umlControl;whiteSpace=wrap;html=1;" parent="1" vertex="1">
          <mxGeometry x="752" y="90" width="70" height="80" as="geometry" />
        </mxCell>
        <mxCell id="bD8-YBU_n-V9kNYaD_5w-24" style="edgeStyle=none;shape=connector;rounded=0;orthogonalLoop=1;jettySize=auto;html=1;entryX=1;entryY=0.5;entryDx=0;entryDy=0;entryPerimeter=0;labelBackgroundColor=default;strokeColor=default;fontFamily=Helvetica;fontSize=11;fontColor=default;endArrow=classic;" parent="1" source="bD8-YBU_n-V9kNYaD_5w-21" target="bD8-YBU_n-V9kNYaD_5w-23" edge="1">
          <mxGeometry relative="1" as="geometry" />
        </mxCell>
        <mxCell id="bD8-YBU_n-V9kNYaD_5w-21" value="Tags" style="ellipse;shape=umlEntity;whiteSpace=wrap;html=1;" parent="1" vertex="1">
          <mxGeometry x="747" y="210" width="80" height="80" as="geometry" />
        </mxCell>
        <mxCell id="bD8-YBU_n-V9kNYaD_5w-26" style="edgeStyle=none;shape=connector;rounded=0;orthogonalLoop=1;jettySize=auto;html=1;entryX=1;entryY=0.5;entryDx=0;entryDy=0;entryPerimeter=0;labelBackgroundColor=default;strokeColor=default;fontFamily=Helvetica;fontSize=11;fontColor=default;endArrow=classic;" parent="1" source="bD8-YBU_n-V9kNYaD_5w-23" target="bD8-YBU_n-V9kNYaD_5w-25" edge="1">
          <mxGeometry relative="1" as="geometry" />
        </mxCell>
        <mxCell id="bD8-YBU_n-V9kNYaD_5w-23" value="Εμφάνισε" style="ellipse;shape=umlControl;whiteSpace=wrap;html=1;" parent="1" vertex="1">
          <mxGeometry x="580" y="210" width="70" height="80" as="geometry" />
        </mxCell>
        <mxCell id="bD8-YBU_n-V9kNYaD_5w-31" style="edgeStyle=none;shape=connector;rounded=0;orthogonalLoop=1;jettySize=auto;html=1;entryX=0.171;entryY=0.25;entryDx=0;entryDy=0;entryPerimeter=0;labelBackgroundColor=default;strokeColor=default;fontFamily=Helvetica;fontSize=11;fontColor=default;endArrow=classic;exitX=0.87;exitY=0.875;exitDx=0;exitDy=0;exitPerimeter=0;" parent="1" source="bD8-YBU_n-V9kNYaD_5w-25" target="bD8-YBU_n-V9kNYaD_5w-30" edge="1">
          <mxGeometry relative="1" as="geometry" />
        </mxCell>
        <mxCell id="bD8-YBU_n-V9kNYaD_5w-25" value="Πεδίο επιλογής tags" style="shape=umlBoundary;whiteSpace=wrap;html=1;" parent="1" vertex="1">
          <mxGeometry x="340" y="200" width="100" height="80" as="geometry" />
        </mxCell>
        <mxCell id="bD8-YBU_n-V9kNYaD_5w-33" style="edgeStyle=none;shape=connector;rounded=0;orthogonalLoop=1;jettySize=auto;html=1;labelBackgroundColor=default;strokeColor=default;fontFamily=Helvetica;fontSize=11;fontColor=default;endArrow=classic;" parent="1" source="bD8-YBU_n-V9kNYaD_5w-30" target="bD8-YBU_n-V9kNYaD_5w-39" edge="1">
          <mxGeometry relative="1" as="geometry">
            <mxPoint x="630" y="340" as="targetPoint" />
          </mxGeometry>
        </mxCell>
        <mxCell id="bD8-YBU_n-V9kNYaD_5w-35" value="ναι" style="edgeLabel;html=1;align=center;verticalAlign=middle;resizable=0;points=[];fontSize=11;fontFamily=Helvetica;fontColor=default;" parent="bD8-YBU_n-V9kNYaD_5w-33" vertex="1" connectable="0">
          <mxGeometry x="-0.4286" y="-1" relative="1" as="geometry">
            <mxPoint as="offset" />
          </mxGeometry>
        </mxCell>
        <mxCell id="cBhaB2CVJODFtWnFs59b-3" style="rounded=0;orthogonalLoop=1;jettySize=auto;html=1;strokeColor=#FF0000;strokeWidth=2;" parent="1" source="bD8-YBU_n-V9kNYaD_5w-30" target="cBhaB2CVJODFtWnFs59b-2" edge="1">
          <mxGeometry relative="1" as="geometry" />
        </mxCell>
        <mxCell id="cBhaB2CVJODFtWnFs59b-4" value="Όχι" style="edgeLabel;html=1;align=center;verticalAlign=middle;resizable=0;points=[];fontSize=11;fontFamily=Helvetica;fontColor=default;" parent="cBhaB2CVJODFtWnFs59b-3" vertex="1" connectable="0">
          <mxGeometry x="-0.24" y="-2" relative="1" as="geometry">
            <mxPoint as="offset" />
          </mxGeometry>
        </mxCell>
        <mxCell id="bD8-YBU_n-V9kNYaD_5w-30" value="Όλα τα πεδία συμπληρωμένα;" style="ellipse;shape=umlControl;whiteSpace=wrap;html=1;" parent="1" vertex="1">
          <mxGeometry x="470" y="290" width="90" height="100" as="geometry" />
        </mxCell>
        <mxCell id="bD8-YBU_n-V9kNYaD_5w-37" style="edgeStyle=none;shape=connector;rounded=0;orthogonalLoop=1;jettySize=auto;html=1;entryX=1.043;entryY=0.675;entryDx=0;entryDy=0;entryPerimeter=0;labelBackgroundColor=default;strokeColor=default;fontFamily=Helvetica;fontSize=11;fontColor=default;endArrow=classic;exitX=-0.029;exitY=0.587;exitDx=0;exitDy=0;exitPerimeter=0;" parent="1" source="bD8-YBU_n-V9kNYaD_5w-39" target="bD8-YBU_n-V9kNYaD_5w-41" edge="1">
          <mxGeometry relative="1" as="geometry">
            <mxPoint x="671.9946765304303" y="389.88836959485707" as="sourcePoint" />
            <mxPoint x="464" y="453.03999999999996" as="targetPoint" />
          </mxGeometry>
        </mxCell>
        <mxCell id="bD8-YBU_n-V9kNYaD_5w-40" value="ναι" style="edgeLabel;html=1;align=center;verticalAlign=middle;resizable=0;points=[];fontSize=11;fontFamily=Helvetica;fontColor=default;" parent="bD8-YBU_n-V9kNYaD_5w-37" vertex="1" connectable="0">
          <mxGeometry x="-0.2263" y="1" relative="1" as="geometry">
            <mxPoint as="offset" />
          </mxGeometry>
        </mxCell>
        <mxCell id="cBhaB2CVJODFtWnFs59b-8" style="edgeStyle=none;shape=connector;rounded=0;orthogonalLoop=1;jettySize=auto;html=1;entryX=0.5;entryY=0.15;entryDx=0;entryDy=0;entryPerimeter=0;labelBackgroundColor=default;strokeColor=#FF0000;fontFamily=Helvetica;fontSize=11;fontColor=default;endArrow=classic;strokeWidth=2;" parent="1" source="bD8-YBU_n-V9kNYaD_5w-39" target="cBhaB2CVJODFtWnFs59b-7" edge="1">
          <mxGeometry relative="1" as="geometry" />
        </mxCell>
        <mxCell id="cBhaB2CVJODFtWnFs59b-9" value="&amp;nbsp;Όχι" style="edgeLabel;html=1;align=center;verticalAlign=middle;resizable=0;points=[];fontSize=11;fontFamily=Helvetica;fontColor=default;" parent="cBhaB2CVJODFtWnFs59b-8" vertex="1" connectable="0">
          <mxGeometry x="-0.3422" y="2" relative="1" as="geometry">
            <mxPoint as="offset" />
          </mxGeometry>
        </mxCell>
        <mxCell id="bD8-YBU_n-V9kNYaD_5w-39" value="Tags OK;" style="ellipse;shape=umlControl;whiteSpace=wrap;html=1;fontFamily=Helvetica;fontSize=11;fontColor=default;" parent="1" vertex="1">
          <mxGeometry x="612" y="420" width="70" height="80" as="geometry" />
        </mxCell>
        <mxCell id="bD8-YBU_n-V9kNYaD_5w-43" style="edgeStyle=none;shape=connector;rounded=0;orthogonalLoop=1;jettySize=auto;html=1;labelBackgroundColor=default;strokeColor=default;fontFamily=Helvetica;fontSize=11;fontColor=default;endArrow=classic;" parent="1" source="bD8-YBU_n-V9kNYaD_5w-41" target="bD8-YBU_n-V9kNYaD_5w-42" edge="1">
          <mxGeometry relative="1" as="geometry" />
        </mxCell>
        <mxCell id="bD8-YBU_n-V9kNYaD_5w-41" value="Εμφάνισε" style="ellipse;shape=umlControl;whiteSpace=wrap;html=1;fontFamily=Helvetica;fontSize=11;fontColor=default;" parent="1" vertex="1">
          <mxGeometry x="500" y="413.03999999999996" width="70" height="80" as="geometry" />
        </mxCell>
        <mxCell id="cBhaB2CVJODFtWnFs59b-13" style="edgeStyle=none;shape=connector;rounded=0;orthogonalLoop=1;jettySize=auto;html=1;entryX=1.014;entryY=0.625;entryDx=0;entryDy=0;entryPerimeter=0;labelBackgroundColor=default;strokeColor=default;fontFamily=Helvetica;fontSize=11;fontColor=default;endArrow=classic;" parent="1" source="bD8-YBU_n-V9kNYaD_5w-42" target="cBhaB2CVJODFtWnFs59b-12" edge="1">
          <mxGeometry relative="1" as="geometry" />
        </mxCell>
        <mxCell id="bD8-YBU_n-V9kNYaD_5w-42" value="Οθόνη επιβεβαίωσης ανάρτησης" style="shape=umlBoundary;whiteSpace=wrap;html=1;" parent="1" vertex="1">
          <mxGeometry x="362" y="413.04" width="100" height="80" as="geometry" />
        </mxCell>
        <mxCell id="bD8-YBU_n-V9kNYaD_5w-50" style="edgeStyle=none;shape=connector;rounded=0;orthogonalLoop=1;jettySize=auto;html=1;entryX=0;entryY=0.5;entryDx=0;entryDy=0;labelBackgroundColor=default;strokeColor=default;fontFamily=Helvetica;fontSize=11;fontColor=default;endArrow=classic;" parent="1" source="bD8-YBU_n-V9kNYaD_5w-47" target="bD8-YBU_n-V9kNYaD_5w-49" edge="1">
          <mxGeometry relative="1" as="geometry" />
        </mxCell>
        <mxCell id="bD8-YBU_n-V9kNYaD_5w-47" value="Δημιούργησε" style="ellipse;shape=umlControl;whiteSpace=wrap;html=1;" parent="1" vertex="1">
          <mxGeometry x="54" y="590" width="70" height="80" as="geometry" />
        </mxCell>
        <mxCell id="bD8-YBU_n-V9kNYaD_5w-52" style="edgeStyle=none;shape=connector;rounded=0;orthogonalLoop=1;jettySize=auto;html=1;labelBackgroundColor=default;strokeColor=default;fontFamily=Helvetica;fontSize=11;fontColor=default;endArrow=classic;" parent="1" source="bD8-YBU_n-V9kNYaD_5w-49" target="bD8-YBU_n-V9kNYaD_5w-51" edge="1">
          <mxGeometry relative="1" as="geometry" />
        </mxCell>
        <mxCell id="bD8-YBU_n-V9kNYaD_5w-49" value="Event" style="ellipse;shape=umlEntity;whiteSpace=wrap;html=1;" parent="1" vertex="1">
          <mxGeometry x="180" y="590" width="80" height="80" as="geometry" />
        </mxCell>
        <mxCell id="bD8-YBU_n-V9kNYaD_5w-55" style="edgeStyle=none;shape=connector;rounded=0;orthogonalLoop=1;jettySize=auto;html=1;entryX=0.1;entryY=0.275;entryDx=0;entryDy=0;entryPerimeter=0;labelBackgroundColor=default;strokeColor=default;fontFamily=Helvetica;fontSize=11;fontColor=default;endArrow=classic;" parent="1" source="bD8-YBU_n-V9kNYaD_5w-51" target="bD8-YBU_n-V9kNYaD_5w-54" edge="1">
          <mxGeometry relative="1" as="geometry" />
        </mxCell>
        <mxCell id="bD8-YBU_n-V9kNYaD_5w-51" value="Αποθήκευσε" style="ellipse;shape=umlControl;whiteSpace=wrap;html=1;" parent="1" vertex="1">
          <mxGeometry x="292" y="640" width="70" height="80" as="geometry" />
        </mxCell>
        <mxCell id="bD8-YBU_n-V9kNYaD_5w-53" value="&lt;div&gt;Αρχική&lt;/div&gt;&lt;div&gt;Οθόνη&lt;br&gt;&lt;/div&gt;" style="shape=umlBoundary;whiteSpace=wrap;html=1;" parent="1" vertex="1">
          <mxGeometry x="50" y="735" width="100" height="80" as="geometry" />
        </mxCell>
        <mxCell id="bD8-YBU_n-V9kNYaD_5w-56" style="edgeStyle=none;shape=connector;rounded=0;orthogonalLoop=1;jettySize=auto;html=1;entryX=1.02;entryY=0.488;entryDx=0;entryDy=0;entryPerimeter=0;labelBackgroundColor=default;strokeColor=default;fontFamily=Helvetica;fontSize=11;fontColor=default;endArrow=classic;" parent="1" source="bD8-YBU_n-V9kNYaD_5w-54" target="bD8-YBU_n-V9kNYaD_5w-53" edge="1">
          <mxGeometry relative="1" as="geometry" />
        </mxCell>
        <mxCell id="bD8-YBU_n-V9kNYaD_5w-54" value="Εμφάνισε" style="ellipse;shape=umlControl;whiteSpace=wrap;html=1;" parent="1" vertex="1">
          <mxGeometry x="480" y="735" width="70" height="80" as="geometry" />
        </mxCell>
        <mxCell id="bD8-YBU_n-V9kNYaD_5w-58" style="edgeStyle=none;shape=connector;rounded=0;orthogonalLoop=1;jettySize=auto;html=1;entryX=0.86;entryY=0.075;entryDx=0;entryDy=0;entryPerimeter=0;labelBackgroundColor=default;strokeColor=default;fontFamily=Helvetica;fontSize=11;fontColor=default;endArrow=classic;" parent="1" source="bD8-YBU_n-V9kNYaD_5w-57" target="bD8-YBU_n-V9kNYaD_5w-15" edge="1">
          <mxGeometry relative="1" as="geometry" />
        </mxCell>
        <mxCell id="bD8-YBU_n-V9kNYaD_5w-57" value="Εμφάνισε" style="ellipse;shape=umlControl;whiteSpace=wrap;html=1;" parent="1" vertex="1">
          <mxGeometry x="612" width="70" height="80" as="geometry" />
        </mxCell>
        <mxCell id="cBhaB2CVJODFtWnFs59b-6" style="edgeStyle=none;shape=connector;rounded=0;orthogonalLoop=1;jettySize=auto;html=1;labelBackgroundColor=default;strokeColor=#FF0000;fontFamily=Helvetica;fontSize=11;fontColor=default;endArrow=classic;entryX=0.57;entryY=-0.037;entryDx=0;entryDy=0;entryPerimeter=0;exitX=0.9;exitY=0.86;exitDx=0;exitDy=0;exitPerimeter=0;strokeWidth=2;" parent="1" source="cBhaB2CVJODFtWnFs59b-2" target="cBhaB2CVJODFtWnFs59b-5" edge="1">
          <mxGeometry relative="1" as="geometry" />
        </mxCell>
        <mxCell id="cBhaB2CVJODFtWnFs59b-2" value="Εμφάνισε μήνυμα μη συμπλήρωσης" style="ellipse;shape=umlControl;whiteSpace=wrap;html=1;" parent="1" vertex="1">
          <mxGeometry x="662" y="290" width="90" height="100" as="geometry" />
        </mxCell>
        <mxCell id="cBhaB2CVJODFtWnFs59b-5" value="Οθόνη Δημιουργίας Εκδήλωσης" style="shape=umlBoundary;whiteSpace=wrap;html=1;" parent="1" vertex="1">
          <mxGeometry x="680" y="660" width="100" height="80" as="geometry" />
        </mxCell>
        <mxCell id="cBhaB2CVJODFtWnFs59b-10" style="edgeStyle=none;shape=connector;rounded=0;orthogonalLoop=1;jettySize=auto;html=1;entryX=0.42;entryY=0.025;entryDx=0;entryDy=0;entryPerimeter=0;labelBackgroundColor=default;strokeColor=#FF0000;fontFamily=Helvetica;fontSize=11;fontColor=default;endArrow=classic;strokeWidth=2;" parent="1" source="cBhaB2CVJODFtWnFs59b-7" target="cBhaB2CVJODFtWnFs59b-5" edge="1">
          <mxGeometry relative="1" as="geometry" />
        </mxCell>
        <mxCell id="cBhaB2CVJODFtWnFs59b-7" value="Εμφάνισε μήνυμα λάθους στα tags" style="ellipse;shape=umlControl;whiteSpace=wrap;html=1;fontFamily=Helvetica;fontSize=11;fontColor=default;" parent="1" vertex="1">
          <mxGeometry x="610" y="530" width="70" height="80" as="geometry" />
        </mxCell>
        <mxCell id="cBhaB2CVJODFtWnFs59b-14" style="edgeStyle=none;shape=connector;rounded=0;orthogonalLoop=1;jettySize=auto;html=1;entryX=0.5;entryY=0.088;entryDx=0;entryDy=0;entryPerimeter=0;labelBackgroundColor=default;strokeColor=default;fontFamily=Helvetica;fontSize=11;fontColor=default;endArrow=classic;" parent="1" source="cBhaB2CVJODFtWnFs59b-12" target="bD8-YBU_n-V9kNYaD_5w-47" edge="1">
          <mxGeometry relative="1" as="geometry" />
        </mxCell>
        <mxCell id="cBhaB2CVJODFtWnFs59b-15" value="Ναι" style="edgeLabel;html=1;align=center;verticalAlign=middle;resizable=0;points=[];fontSize=11;fontFamily=Helvetica;fontColor=default;" parent="cBhaB2CVJODFtWnFs59b-14" vertex="1" connectable="0">
          <mxGeometry x="-0.3176" y="2" relative="1" as="geometry">
            <mxPoint x="1" as="offset" />
          </mxGeometry>
        </mxCell>
        <mxCell id="cBhaB2CVJODFtWnFs59b-16" style="edgeStyle=none;shape=connector;rounded=0;orthogonalLoop=1;jettySize=auto;html=1;labelBackgroundColor=default;strokeColor=#FF0000;fontFamily=Helvetica;fontSize=11;fontColor=default;endArrow=classic;entryX=0.5;entryY=0.088;entryDx=0;entryDy=0;entryPerimeter=0;strokeWidth=2;" parent="1" source="cBhaB2CVJODFtWnFs59b-12" target="bD8-YBU_n-V9kNYaD_5w-54" edge="1">
          <mxGeometry relative="1" as="geometry">
            <mxPoint x="470" y="730" as="targetPoint" />
          </mxGeometry>
        </mxCell>
        <mxCell id="cBhaB2CVJODFtWnFs59b-17" value="Όχι" style="edgeLabel;html=1;align=center;verticalAlign=middle;resizable=0;points=[];fontSize=11;fontFamily=Helvetica;fontColor=default;" parent="cBhaB2CVJODFtWnFs59b-16" vertex="1" connectable="0">
          <mxGeometry x="-0.4141" y="-1" relative="1" as="geometry">
            <mxPoint as="offset" />
          </mxGeometry>
        </mxCell>
        <mxCell id="cBhaB2CVJODFtWnFs59b-12" value="Επιβεβαιωσε ο χειριστής;" style="ellipse;shape=umlControl;whiteSpace=wrap;html=1;fontFamily=Helvetica;fontSize=11;fontColor=default;" parent="1" vertex="1">
          <mxGeometry x="160" y="470" width="70" height="80" as="geometry" />
        </mxCell>
      </root>
    </mxGraphModel>
  </diagram>
  <diagram id="fbPdo-i1lljys93ZMGdz" name="Page-2">
    <mxGraphModel dx="819" dy="1501" grid="1" gridSize="10" guides="1" tooltips="1" connect="1" arrows="1" fold="1" page="1" pageScale="1" pageWidth="850" pageHeight="1100" math="0" shadow="0">
      <root>
        <mxCell id="0" />
        <mxCell id="1" parent="0" />
        <mxCell id="N5YHVKJ3UYFwUfenDHsr-2" style="edgeStyle=orthogonalEdgeStyle;rounded=0;orthogonalLoop=1;jettySize=auto;html=1;" parent="1" source="djv_9fl-FYmuhkyV4pVC-3" target="N5YHVKJ3UYFwUfenDHsr-1" edge="1">
          <mxGeometry relative="1" as="geometry">
            <Array as="points">
              <mxPoint x="160" y="280" />
              <mxPoint x="160" y="220" />
            </Array>
          </mxGeometry>
        </mxCell>
        <mxCell id="Em8_BqwWi_r899SgXuJT-1" value="&lt;font style=&quot;font-size: 12px;&quot;&gt;Συμπλήρωνει πεδία&lt;/font&gt;" style="edgeLabel;html=1;align=center;verticalAlign=middle;resizable=0;points=[];" parent="N5YHVKJ3UYFwUfenDHsr-2" vertex="1" connectable="0">
          <mxGeometry x="0.112" relative="1" as="geometry">
            <mxPoint y="13" as="offset" />
          </mxGeometry>
        </mxCell>
        <mxCell id="18sazHAnWkR40vW5EPB2-6" style="edgeStyle=orthogonalEdgeStyle;rounded=0;orthogonalLoop=1;jettySize=auto;html=1;" parent="1" edge="1" source="djv_9fl-FYmuhkyV4pVC-3">
          <mxGeometry relative="1" as="geometry">
            <mxPoint x="74" y="290" as="sourcePoint" />
            <mxPoint x="246" y="340" as="targetPoint" />
            <Array as="points">
              <mxPoint x="160" y="280" />
              <mxPoint x="160" y="340" />
            </Array>
          </mxGeometry>
        </mxCell>
        <mxCell id="18sazHAnWkR40vW5EPB2-7" value="&lt;font style=&quot;font-size: 12px;&quot;&gt;Επιλέγει διαθέσιμα Tags&lt;/font&gt;" style="edgeLabel;html=1;align=center;verticalAlign=middle;resizable=0;points=[];" parent="18sazHAnWkR40vW5EPB2-6" vertex="1" connectable="0">
          <mxGeometry x="0.1043" relative="1" as="geometry">
            <mxPoint x="20" y="-17" as="offset" />
          </mxGeometry>
        </mxCell>
        <mxCell id="UbQxkhLccPZGi5YPXI8B-2" style="edgeStyle=orthogonalEdgeStyle;rounded=0;orthogonalLoop=1;jettySize=auto;html=1;entryX=-0.01;entryY=0.525;entryDx=0;entryDy=0;entryPerimeter=0;" parent="1" source="djv_9fl-FYmuhkyV4pVC-3" target="jJ9ehv2KRkQ1myph0Zev-1" edge="1">
          <mxGeometry relative="1" as="geometry">
            <Array as="points">
              <mxPoint x="160" y="280" />
              <mxPoint x="160" y="562" />
            </Array>
          </mxGeometry>
        </mxCell>
        <mxCell id="UbQxkhLccPZGi5YPXI8B-3" value="&lt;font style=&quot;font-size: 12px;&quot;&gt;Επιλέγει Template&lt;/font&gt;" style="edgeLabel;html=1;align=center;verticalAlign=middle;resizable=0;points=[];" parent="UbQxkhLccPZGi5YPXI8B-2" vertex="1" connectable="0">
          <mxGeometry x="0.0968" y="2" relative="1" as="geometry">
            <mxPoint x="-2" y="97" as="offset" />
          </mxGeometry>
        </mxCell>
        <mxCell id="B2D-fWoQOOHTMf8J5eOF-9" style="edgeStyle=orthogonalEdgeStyle;rounded=0;orthogonalLoop=1;jettySize=auto;html=1;entryX=0.01;entryY=0.5;entryDx=0;entryDy=0;entryPerimeter=0;" parent="1" edge="1">
          <mxGeometry relative="1" as="geometry">
            <mxPoint x="90" y="280" as="sourcePoint" />
            <mxPoint x="245" y="655" as="targetPoint" />
            <Array as="points">
              <mxPoint x="90" y="280" />
              <mxPoint x="90" y="278" />
              <mxPoint x="160" y="278" />
              <mxPoint x="160" y="660" />
              <mxPoint x="245" y="660" />
            </Array>
          </mxGeometry>
        </mxCell>
        <mxCell id="B2D-fWoQOOHTMf8J5eOF-10" value="&lt;font style=&quot;font-size: 12px;&quot;&gt;Συμπλήρωνει στοιχεία&lt;br&gt;&lt;/font&gt;" style="edgeLabel;html=1;align=center;verticalAlign=middle;resizable=0;points=[];" parent="B2D-fWoQOOHTMf8J5eOF-9" vertex="1" connectable="0">
          <mxGeometry x="0.5666" y="-2" relative="1" as="geometry">
            <mxPoint y="-11" as="offset" />
          </mxGeometry>
        </mxCell>
        <mxCell id="lf9sTRK1ACTYoIC8fee--10" style="edgeStyle=orthogonalEdgeStyle;rounded=0;orthogonalLoop=1;jettySize=auto;html=1;entryX=0.01;entryY=0.475;entryDx=0;entryDy=0;entryPerimeter=0;" parent="1" edge="1" source="djv_9fl-FYmuhkyV4pVC-3">
          <mxGeometry relative="1" as="geometry">
            <mxPoint x="70" y="360" as="sourcePoint" />
            <mxPoint x="245" y="898" as="targetPoint" />
            <Array as="points">
              <mxPoint x="160" y="280" />
              <mxPoint x="160" y="890" />
              <mxPoint x="245" y="890" />
            </Array>
          </mxGeometry>
        </mxCell>
        <mxCell id="69cD7V_aeC2QLdJy6PVI-4" value="&lt;font style=&quot;font-size: 12px;&quot;&gt;Επιλέγει Πολυμέσα&lt;/font&gt;" style="edgeLabel;html=1;align=center;verticalAlign=middle;resizable=0;points=[];" parent="lf9sTRK1ACTYoIC8fee--10" vertex="1" connectable="0">
          <mxGeometry x="0.5857" relative="1" as="geometry">
            <mxPoint as="offset" />
          </mxGeometry>
        </mxCell>
        <mxCell id="oVPALdUXAet4IlVk9jY_-4" style="edgeStyle=orthogonalEdgeStyle;rounded=0;orthogonalLoop=1;jettySize=auto;html=1;entryX=-0.01;entryY=0.513;entryDx=0;entryDy=0;entryPerimeter=0;" parent="1" edge="1">
          <mxGeometry relative="1" as="geometry">
            <mxPoint x="90" y="279" as="sourcePoint" />
            <mxPoint x="241" y="770.04" as="targetPoint" />
            <Array as="points">
              <mxPoint x="160" y="279" />
              <mxPoint x="160" y="770" />
            </Array>
          </mxGeometry>
        </mxCell>
        <mxCell id="oVPALdUXAet4IlVk9jY_-5" value="&lt;font style=&quot;font-size: 12px;&quot;&gt;Δήλωνει το Τέλος ανάπτυξης&amp;nbsp;&lt;br&gt;εικονικής ξενάγησης&lt;/font&gt;" style="edgeLabel;html=1;align=center;verticalAlign=middle;resizable=0;points=[];" parent="oVPALdUXAet4IlVk9jY_-4" vertex="1" connectable="0">
          <mxGeometry x="0.6319" y="1" relative="1" as="geometry">
            <mxPoint as="offset" />
          </mxGeometry>
        </mxCell>
        <mxCell id="Mwn1UTbKAgbpNBRwYGt4-2" style="edgeStyle=orthogonalEdgeStyle;rounded=0;orthogonalLoop=1;jettySize=auto;html=1;entryX=0;entryY=0.525;entryDx=0;entryDy=0;entryPerimeter=0;" parent="1" source="djv_9fl-FYmuhkyV4pVC-3" target="Mwn1UTbKAgbpNBRwYGt4-1" edge="1">
          <mxGeometry relative="1" as="geometry">
            <Array as="points">
              <mxPoint x="160" y="280" />
              <mxPoint x="160" y="92" />
            </Array>
          </mxGeometry>
        </mxCell>
        <mxCell id="Mwn1UTbKAgbpNBRwYGt4-3" value="&lt;font style=&quot;font-size: 12px;&quot;&gt;Επιβεβαιώνει ανάρτηση&lt;/font&gt;" style="edgeLabel;html=1;align=center;verticalAlign=middle;resizable=0;points=[];" parent="Mwn1UTbKAgbpNBRwYGt4-2" vertex="1" connectable="0">
          <mxGeometry x="0.1722" y="-1" relative="1" as="geometry">
            <mxPoint as="offset" />
          </mxGeometry>
        </mxCell>
        <mxCell id="djv_9fl-FYmuhkyV4pVC-3" value="&lt;b&gt;&lt;font style=&quot;font-size: 14px;&quot;&gt;&amp;nbsp;Χειριστής &lt;/font&gt;&lt;/b&gt;" style="shape=umlActor;verticalLabelPosition=bottom;verticalAlign=top;html=1;outlineConnect=0;" parent="1" vertex="1">
          <mxGeometry x="43" y="240" width="50" height="100" as="geometry" />
        </mxCell>
        <mxCell id="euLqYJspITLp8LQ8Xld8-11" style="edgeStyle=orthogonalEdgeStyle;rounded=0;orthogonalLoop=1;jettySize=auto;html=1;exitX=0.5;exitY=0;exitDx=0;exitDy=0;exitPerimeter=0;entryX=0;entryY=1;entryDx=0;entryDy=0;entryPerimeter=0;" parent="1" target="djv_9fl-FYmuhkyV4pVC-3" edge="1">
          <mxGeometry relative="1" as="geometry">
            <mxPoint x="28" y="420" as="sourcePoint" />
            <Array as="points">
              <mxPoint x="30" y="420" />
              <mxPoint x="30" y="340" />
            </Array>
          </mxGeometry>
        </mxCell>
        <mxCell id="djv_9fl-FYmuhkyV4pVC-7" value="Ξεναγός" style="shape=umlActor;verticalLabelPosition=bottom;verticalAlign=top;html=1;outlineConnect=0;" parent="1" vertex="1">
          <mxGeometry x="13" y="420" width="30" height="60" as="geometry" />
        </mxCell>
        <mxCell id="euLqYJspITLp8LQ8Xld8-12" style="edgeStyle=orthogonalEdgeStyle;rounded=0;orthogonalLoop=1;jettySize=auto;html=1;entryX=1;entryY=1;entryDx=0;entryDy=0;entryPerimeter=0;" parent="1" source="djv_9fl-FYmuhkyV4pVC-9" target="djv_9fl-FYmuhkyV4pVC-3" edge="1">
          <mxGeometry relative="1" as="geometry">
            <Array as="points">
              <mxPoint x="105" y="340" />
            </Array>
          </mxGeometry>
        </mxCell>
        <mxCell id="djv_9fl-FYmuhkyV4pVC-9" value="&lt;div&gt;Πολιτιστικός&lt;/div&gt;&lt;div&gt;Οργανισμός&lt;/div&gt;" style="shape=umlActor;verticalLabelPosition=bottom;verticalAlign=top;html=1;outlineConnect=0;" parent="1" vertex="1">
          <mxGeometry x="90" y="420" width="30" height="60" as="geometry" />
        </mxCell>
        <mxCell id="WqAv6ZY1qrdTYN-hj5tx-7" style="edgeStyle=orthogonalEdgeStyle;rounded=0;orthogonalLoop=1;jettySize=auto;html=1;entryX=0;entryY=0.575;entryDx=0;entryDy=0;entryPerimeter=0;" parent="1" source="N5YHVKJ3UYFwUfenDHsr-1" target="WqAv6ZY1qrdTYN-hj5tx-2" edge="1">
          <mxGeometry relative="1" as="geometry" />
        </mxCell>
        <mxCell id="N5YHVKJ3UYFwUfenDHsr-1" value="Οθόνη Δημιουργίας εικονικών ξεναγήσεων" style="shape=umlBoundary;whiteSpace=wrap;html=1;" parent="1" vertex="1">
          <mxGeometry x="250" y="180" width="100" height="80" as="geometry" />
        </mxCell>
        <mxCell id="H8L4oAmru_mwdPi3S2V8-2" style="edgeStyle=orthogonalEdgeStyle;rounded=0;orthogonalLoop=1;jettySize=auto;html=1;" parent="1" source="H8L4oAmru_mwdPi3S2V8-1" target="N5YHVKJ3UYFwUfenDHsr-1" edge="1">
          <mxGeometry relative="1" as="geometry" />
        </mxCell>
        <mxCell id="H8L4oAmru_mwdPi3S2V8-1" value="Εμφάνισε" style="ellipse;shape=umlControl;whiteSpace=wrap;html=1;" parent="1" vertex="1">
          <mxGeometry x="380" y="140" width="70" height="80" as="geometry" />
        </mxCell>
        <mxCell id="WqAv6ZY1qrdTYN-hj5tx-1" style="rounded=0;orthogonalLoop=1;jettySize=auto;html=1;entryX=0.5;entryY=0;entryDx=0;entryDy=0;" parent="1" source="WqAv6ZY1qrdTYN-hj5tx-2" target="WqAv6ZY1qrdTYN-hj5tx-4" edge="1">
          <mxGeometry relative="1" as="geometry" />
        </mxCell>
        <mxCell id="WqAv6ZY1qrdTYN-hj5tx-2" value="Φόρτωσε" style="ellipse;shape=umlControl;whiteSpace=wrap;html=1;" parent="1" vertex="1">
          <mxGeometry x="465" y="174" width="70" height="80" as="geometry" />
        </mxCell>
        <mxCell id="18sazHAnWkR40vW5EPB2-2" style="edgeStyle=orthogonalEdgeStyle;rounded=0;orthogonalLoop=1;jettySize=auto;html=1;" parent="1" source="WqAv6ZY1qrdTYN-hj5tx-4" target="WqAv6ZY1qrdTYN-hj5tx-5" edge="1">
          <mxGeometry relative="1" as="geometry" />
        </mxCell>
        <mxCell id="WqAv6ZY1qrdTYN-hj5tx-4" value="Tags" style="ellipse;shape=umlEntity;whiteSpace=wrap;html=1;" parent="1" vertex="1">
          <mxGeometry x="460" y="300" width="80" height="80" as="geometry" />
        </mxCell>
        <mxCell id="18sazHAnWkR40vW5EPB2-3" style="edgeStyle=orthogonalEdgeStyle;rounded=0;orthogonalLoop=1;jettySize=auto;html=1;" parent="1" source="WqAv6ZY1qrdTYN-hj5tx-5" target="18sazHAnWkR40vW5EPB2-1" edge="1">
          <mxGeometry relative="1" as="geometry" />
        </mxCell>
        <mxCell id="WqAv6ZY1qrdTYN-hj5tx-5" value="Εμφάνισε" style="ellipse;shape=umlControl;whiteSpace=wrap;html=1;" parent="1" vertex="1">
          <mxGeometry x="370" y="300" width="70" height="80" as="geometry" />
        </mxCell>
        <mxCell id="B2D-fWoQOOHTMf8J5eOF-2" style="edgeStyle=orthogonalEdgeStyle;rounded=0;orthogonalLoop=1;jettySize=auto;html=1;" parent="1" source="18sazHAnWkR40vW5EPB2-1" target="B2D-fWoQOOHTMf8J5eOF-1" edge="1">
          <mxGeometry relative="1" as="geometry" />
        </mxCell>
        <mxCell id="18sazHAnWkR40vW5EPB2-1" value="Πεδίο επιλογής tags" style="shape=umlBoundary;whiteSpace=wrap;html=1;" parent="1" vertex="1">
          <mxGeometry x="250" y="300" width="100" height="80" as="geometry" />
        </mxCell>
        <mxCell id="B2D-fWoQOOHTMf8J5eOF-5" style="edgeStyle=orthogonalEdgeStyle;rounded=0;orthogonalLoop=1;jettySize=auto;html=1;" parent="1" source="jJ9ehv2KRkQ1myph0Zev-1" target="B2D-fWoQOOHTMf8J5eOF-4" edge="1">
          <mxGeometry relative="1" as="geometry" />
        </mxCell>
        <mxCell id="jJ9ehv2KRkQ1myph0Zev-1" value="Οθόνη διαθέσιμων Templates" style="shape=umlBoundary;whiteSpace=wrap;html=1;" parent="1" vertex="1">
          <mxGeometry x="242" y="520" width="100" height="80" as="geometry" />
        </mxCell>
        <mxCell id="B2D-fWoQOOHTMf8J5eOF-3" style="edgeStyle=orthogonalEdgeStyle;rounded=0;orthogonalLoop=1;jettySize=auto;html=1;entryX=0.58;entryY=0.025;entryDx=0;entryDy=0;entryPerimeter=0;" parent="1" source="B2D-fWoQOOHTMf8J5eOF-1" target="jJ9ehv2KRkQ1myph0Zev-1" edge="1">
          <mxGeometry relative="1" as="geometry" />
        </mxCell>
        <mxCell id="B2D-fWoQOOHTMf8J5eOF-1" value="Εμφάνισε" style="ellipse;shape=umlControl;whiteSpace=wrap;html=1;" parent="1" vertex="1">
          <mxGeometry x="265" y="410" width="70" height="80" as="geometry" />
        </mxCell>
        <mxCell id="B2D-fWoQOOHTMf8J5eOF-7" style="edgeStyle=orthogonalEdgeStyle;rounded=0;orthogonalLoop=1;jettySize=auto;html=1;entryX=0.5;entryY=0;entryDx=0;entryDy=0;" parent="1" source="B2D-fWoQOOHTMf8J5eOF-4" target="B2D-fWoQOOHTMf8J5eOF-6" edge="1">
          <mxGeometry relative="1" as="geometry" />
        </mxCell>
        <mxCell id="yBb2og5DVUq2NlEsXB4i-2" style="edgeStyle=orthogonalEdgeStyle;rounded=0;orthogonalLoop=1;jettySize=auto;html=1;" parent="1" source="B2D-fWoQOOHTMf8J5eOF-4" target="yBb2og5DVUq2NlEsXB4i-1" edge="1">
          <mxGeometry relative="1" as="geometry" />
        </mxCell>
        <mxCell id="B2D-fWoQOOHTMf8J5eOF-4" value="Δημιούργησε" style="ellipse;shape=umlControl;whiteSpace=wrap;html=1;" parent="1" vertex="1">
          <mxGeometry x="554" y="520" width="70" height="80" as="geometry" />
        </mxCell>
        <mxCell id="B2D-fWoQOOHTMf8J5eOF-6" value="&quot;Σελίδα&quot; εικονικής ξενάγησης" style="ellipse;shape=umlEntity;whiteSpace=wrap;html=1;" parent="1" vertex="1">
          <mxGeometry x="549" y="680" width="80" height="80" as="geometry" />
        </mxCell>
        <mxCell id="lf9sTRK1ACTYoIC8fee--3" style="edgeStyle=orthogonalEdgeStyle;rounded=0;orthogonalLoop=1;jettySize=auto;html=1;entryX=0.5;entryY=0.063;entryDx=0;entryDy=0;entryPerimeter=0;" parent="1" source="B2D-fWoQOOHTMf8J5eOF-8" target="lf9sTRK1ACTYoIC8fee--1" edge="1">
          <mxGeometry relative="1" as="geometry" />
        </mxCell>
        <mxCell id="lf9sTRK1ACTYoIC8fee--9" style="edgeStyle=orthogonalEdgeStyle;rounded=0;orthogonalLoop=1;jettySize=auto;html=1;entryX=0.486;entryY=0.188;entryDx=0;entryDy=0;entryPerimeter=0;" parent="1" source="B2D-fWoQOOHTMf8J5eOF-8" target="lf9sTRK1ACTYoIC8fee--4" edge="1">
          <mxGeometry relative="1" as="geometry">
            <Array as="points">
              <mxPoint x="460" y="660" />
              <mxPoint x="460" y="864" />
            </Array>
          </mxGeometry>
        </mxCell>
        <mxCell id="B2D-fWoQOOHTMf8J5eOF-8" value="Οθόνη Επεξεργασίας &quot;Σελίδας&quot; εικονικής ξενάγησης" style="shape=umlBoundary;whiteSpace=wrap;html=1;" parent="1" vertex="1">
          <mxGeometry x="244" y="620" width="100" height="80" as="geometry" />
        </mxCell>
        <mxCell id="oVPALdUXAet4IlVk9jY_-1" style="edgeStyle=orthogonalEdgeStyle;rounded=0;orthogonalLoop=1;jettySize=auto;html=1;entryX=0.52;entryY=0.013;entryDx=0;entryDy=0;entryPerimeter=0;" parent="1" source="yBb2og5DVUq2NlEsXB4i-1" target="B2D-fWoQOOHTMf8J5eOF-8" edge="1">
          <mxGeometry relative="1" as="geometry">
            <Array as="points">
              <mxPoint x="296" y="610" />
            </Array>
          </mxGeometry>
        </mxCell>
        <mxCell id="oVPALdUXAet4IlVk9jY_-3" style="edgeStyle=orthogonalEdgeStyle;rounded=0;orthogonalLoop=1;jettySize=auto;html=1;" parent="1" source="yBb2og5DVUq2NlEsXB4i-1" target="oVPALdUXAet4IlVk9jY_-2" edge="1">
          <mxGeometry relative="1" as="geometry">
            <Array as="points">
              <mxPoint x="479" y="710" />
              <mxPoint x="292" y="710" />
            </Array>
          </mxGeometry>
        </mxCell>
        <mxCell id="yBb2og5DVUq2NlEsXB4i-1" value="Εμφάνισε" style="ellipse;shape=umlControl;whiteSpace=wrap;html=1;" parent="1" vertex="1">
          <mxGeometry x="444" y="561" width="70" height="80" as="geometry" />
        </mxCell>
        <mxCell id="lf9sTRK1ACTYoIC8fee--6" style="edgeStyle=orthogonalEdgeStyle;rounded=0;orthogonalLoop=1;jettySize=auto;html=1;" parent="1" source="lf9sTRK1ACTYoIC8fee--1" target="B2D-fWoQOOHTMf8J5eOF-6" edge="1">
          <mxGeometry relative="1" as="geometry">
            <Array as="points">
              <mxPoint x="592" y="830" />
            </Array>
          </mxGeometry>
        </mxCell>
        <mxCell id="lf9sTRK1ACTYoIC8fee--1" value="Αναναίωσε" style="ellipse;shape=umlControl;whiteSpace=wrap;html=1;" parent="1" vertex="1">
          <mxGeometry x="475" y="849" width="70" height="80" as="geometry" />
        </mxCell>
        <mxCell id="lf9sTRK1ACTYoIC8fee--12" style="edgeStyle=orthogonalEdgeStyle;rounded=0;orthogonalLoop=1;jettySize=auto;html=1;entryX=0.5;entryY=0.163;entryDx=0;entryDy=0;entryPerimeter=0;" parent="1" source="lf9sTRK1ACTYoIC8fee--4" target="lf9sTRK1ACTYoIC8fee--11" edge="1">
          <mxGeometry relative="1" as="geometry" />
        </mxCell>
        <mxCell id="69cD7V_aeC2QLdJy6PVI-2" style="edgeStyle=orthogonalEdgeStyle;rounded=0;orthogonalLoop=1;jettySize=auto;html=1;" parent="1" source="lf9sTRK1ACTYoIC8fee--4" target="69cD7V_aeC2QLdJy6PVI-1" edge="1">
          <mxGeometry relative="1" as="geometry">
            <Array as="points">
              <mxPoint x="407" y="949" />
              <mxPoint x="510" y="949" />
            </Array>
          </mxGeometry>
        </mxCell>
        <mxCell id="lf9sTRK1ACTYoIC8fee--4" value="Ανέβασε πολυμέσα" style="ellipse;shape=umlControl;whiteSpace=wrap;html=1;" parent="1" vertex="1">
          <mxGeometry x="372" y="849" width="70" height="80" as="geometry" />
        </mxCell>
        <mxCell id="lf9sTRK1ACTYoIC8fee--14" style="edgeStyle=orthogonalEdgeStyle;rounded=0;orthogonalLoop=1;jettySize=auto;html=1;" parent="1" source="lf9sTRK1ACTYoIC8fee--8" target="lf9sTRK1ACTYoIC8fee--4" edge="1">
          <mxGeometry relative="1" as="geometry" />
        </mxCell>
        <mxCell id="lf9sTRK1ACTYoIC8fee--8" value="Οθόνη Επιλογής Πολυμέσων" style="shape=umlBoundary;whiteSpace=wrap;html=1;" parent="1" vertex="1">
          <mxGeometry x="244" y="850" width="100" height="80" as="geometry" />
        </mxCell>
        <mxCell id="lf9sTRK1ACTYoIC8fee--13" style="edgeStyle=orthogonalEdgeStyle;rounded=0;orthogonalLoop=1;jettySize=auto;html=1;entryX=0.56;entryY=1;entryDx=0;entryDy=0;entryPerimeter=0;" parent="1" source="lf9sTRK1ACTYoIC8fee--11" target="lf9sTRK1ACTYoIC8fee--8" edge="1">
          <mxGeometry relative="1" as="geometry" />
        </mxCell>
        <mxCell id="lf9sTRK1ACTYoIC8fee--11" value="Εμφάνισε" style="ellipse;shape=umlControl;whiteSpace=wrap;html=1;" parent="1" vertex="1">
          <mxGeometry x="372" y="979" width="70" height="80" as="geometry" />
        </mxCell>
        <mxCell id="69cD7V_aeC2QLdJy6PVI-3" style="edgeStyle=orthogonalEdgeStyle;rounded=0;orthogonalLoop=1;jettySize=auto;html=1;" parent="1" source="69cD7V_aeC2QLdJy6PVI-1" target="lf9sTRK1ACTYoIC8fee--1" edge="1">
          <mxGeometry relative="1" as="geometry">
            <Array as="points">
              <mxPoint x="572" y="1019" />
              <mxPoint x="572" y="889" />
            </Array>
          </mxGeometry>
        </mxCell>
        <mxCell id="euLqYJspITLp8LQ8Xld8-4" value="&lt;b&gt;Ναι&lt;/b&gt;" style="edgeLabel;html=1;align=center;verticalAlign=middle;resizable=0;points=[];" parent="69cD7V_aeC2QLdJy6PVI-3" vertex="1" connectable="0">
          <mxGeometry x="-0.1196" y="-1" relative="1" as="geometry">
            <mxPoint as="offset" />
          </mxGeometry>
        </mxCell>
        <mxCell id="euLqYJspITLp8LQ8Xld8-6" style="edgeStyle=orthogonalEdgeStyle;rounded=0;orthogonalLoop=1;jettySize=auto;html=1;" parent="1" source="69cD7V_aeC2QLdJy6PVI-1" target="euLqYJspITLp8LQ8Xld8-5" edge="1">
          <mxGeometry relative="1" as="geometry">
            <Array as="points">
              <mxPoint x="630" y="1019" />
              <mxPoint x="630" y="1019" />
            </Array>
          </mxGeometry>
        </mxCell>
        <mxCell id="euLqYJspITLp8LQ8Xld8-7" value="&lt;b&gt;&lt;font style=&quot;font-size: 12px;&quot;&gt;Οχι&lt;/font&gt;&lt;/b&gt;" style="edgeLabel;html=1;align=center;verticalAlign=middle;resizable=0;points=[];" parent="euLqYJspITLp8LQ8Xld8-6" vertex="1" connectable="0">
          <mxGeometry x="0.168" y="-1" relative="1" as="geometry">
            <mxPoint as="offset" />
          </mxGeometry>
        </mxCell>
        <mxCell id="69cD7V_aeC2QLdJy6PVI-1" value="Μέγεθος πολυμέσων επιτρεπτό ?" style="ellipse;shape=umlControl;whiteSpace=wrap;html=1;" parent="1" vertex="1">
          <mxGeometry x="475" y="979" width="70" height="80" as="geometry" />
        </mxCell>
        <mxCell id="271vx31JBBbXIBqX39X_-13" style="edgeStyle=orthogonalEdgeStyle;rounded=0;orthogonalLoop=1;jettySize=auto;html=1;" parent="1" source="oVPALdUXAet4IlVk9jY_-2" target="271vx31JBBbXIBqX39X_-12" edge="1">
          <mxGeometry relative="1" as="geometry" />
        </mxCell>
        <mxCell id="oVPALdUXAet4IlVk9jY_-2" value="Interface τερματισμού" style="shape=umlBoundary;whiteSpace=wrap;html=1;" parent="1" vertex="1">
          <mxGeometry x="242" y="730" width="100" height="80" as="geometry" />
        </mxCell>
        <mxCell id="8c1nbTiKgx0kHCpXewl8-2" style="edgeStyle=orthogonalEdgeStyle;rounded=0;orthogonalLoop=1;jettySize=auto;html=1;entryX=-0.022;entryY=0.6;entryDx=0;entryDy=0;entryPerimeter=0;" parent="1" source="8c1nbTiKgx0kHCpXewl8-1" target="JFJHbORGreSP9yFF4DVf-1" edge="1">
          <mxGeometry relative="1" as="geometry">
            <mxPoint x="610" y="480" as="targetPoint" />
          </mxGeometry>
        </mxCell>
        <mxCell id="JFJHbORGreSP9yFF4DVf-2" value="&lt;font style=&quot;font-size: 12px;&quot;&gt;&lt;b&gt;Οχι&lt;/b&gt;&lt;/font&gt;" style="edgeLabel;html=1;align=center;verticalAlign=middle;resizable=0;points=[];" parent="8c1nbTiKgx0kHCpXewl8-2" vertex="1" connectable="0">
          <mxGeometry x="-0.2814" y="-1" relative="1" as="geometry">
            <mxPoint as="offset" />
          </mxGeometry>
        </mxCell>
        <mxCell id="NlaS7th6J-unLpyWwJoV-1" style="edgeStyle=orthogonalEdgeStyle;rounded=0;orthogonalLoop=1;jettySize=auto;html=1;" parent="1" source="8c1nbTiKgx0kHCpXewl8-1" target="QjZfWIyiX181x9h4RjKt-1" edge="1">
          <mxGeometry relative="1" as="geometry" />
        </mxCell>
        <mxCell id="NlaS7th6J-unLpyWwJoV-2" value="&lt;b&gt;Ναι&lt;/b&gt;" style="edgeLabel;html=1;align=center;verticalAlign=middle;resizable=0;points=[];" parent="NlaS7th6J-unLpyWwJoV-1" vertex="1" connectable="0">
          <mxGeometry x="0.304" y="2" relative="1" as="geometry">
            <mxPoint x="1" y="1" as="offset" />
          </mxGeometry>
        </mxCell>
        <mxCell id="8c1nbTiKgx0kHCpXewl8-1" value="Όλα τα πεδία συμπληρωμένα;" style="ellipse;shape=umlControl;whiteSpace=wrap;html=1;" parent="1" vertex="1">
          <mxGeometry x="375" y="430" width="100" height="100" as="geometry" />
        </mxCell>
        <mxCell id="0z0tkoHrf9tsBHlPu7zB-2" style="edgeStyle=orthogonalEdgeStyle;rounded=0;orthogonalLoop=1;jettySize=auto;html=1;entryX=0.56;entryY=-0.025;entryDx=0;entryDy=0;entryPerimeter=0;" parent="1" source="JFJHbORGreSP9yFF4DVf-1" target="0z0tkoHrf9tsBHlPu7zB-1" edge="1">
          <mxGeometry relative="1" as="geometry">
            <Array as="points">
              <mxPoint x="665" y="560" />
              <mxPoint x="696" y="560" />
            </Array>
          </mxGeometry>
        </mxCell>
        <mxCell id="JFJHbORGreSP9yFF4DVf-1" value="Εμφάνισε μήνυμα μη συμπλήρωσης" style="ellipse;shape=umlControl;whiteSpace=wrap;html=1;" parent="1" vertex="1">
          <mxGeometry x="620" y="420" width="90" height="100" as="geometry" />
        </mxCell>
        <mxCell id="0z0tkoHrf9tsBHlPu7zB-1" value="Οθόνη Δημιουργίας εικονικών ξεναγήσεων" style="shape=umlBoundary;whiteSpace=wrap;html=1;" parent="1" vertex="1">
          <mxGeometry x="640" y="580" width="100" height="80" as="geometry" />
        </mxCell>
        <mxCell id="euLqYJspITLp8LQ8Xld8-3" style="edgeStyle=orthogonalEdgeStyle;rounded=0;orthogonalLoop=1;jettySize=auto;html=1;entryX=0.56;entryY=-0.012;entryDx=0;entryDy=0;entryPerimeter=0;" parent="1" source="mos4P-jE9iSyS3Ae_FOb-1" target="0z0tkoHrf9tsBHlPu7zB-1" edge="1">
          <mxGeometry relative="1" as="geometry">
            <Array as="points">
              <mxPoint x="755" y="560" />
              <mxPoint x="696" y="560" />
            </Array>
          </mxGeometry>
        </mxCell>
        <mxCell id="mos4P-jE9iSyS3Ae_FOb-1" value="Εμφάνισε μήνυμα λάθους στα tags" style="ellipse;shape=umlControl;whiteSpace=wrap;html=1;fontFamily=Helvetica;fontSize=11;fontColor=default;" parent="1" vertex="1">
          <mxGeometry x="720" y="370" width="70" height="80" as="geometry" />
        </mxCell>
        <mxCell id="euLqYJspITLp8LQ8Xld8-1" style="edgeStyle=orthogonalEdgeStyle;rounded=0;orthogonalLoop=1;jettySize=auto;html=1;" parent="1" source="QjZfWIyiX181x9h4RjKt-1" target="mos4P-jE9iSyS3Ae_FOb-1" edge="1">
          <mxGeometry relative="1" as="geometry" />
        </mxCell>
        <mxCell id="euLqYJspITLp8LQ8Xld8-2" value="&lt;b&gt;Οχι&lt;/b&gt;" style="edgeLabel;html=1;align=center;verticalAlign=middle;resizable=0;points=[];" parent="euLqYJspITLp8LQ8Xld8-1" vertex="1" connectable="0">
          <mxGeometry x="-0.2762" y="1" relative="1" as="geometry">
            <mxPoint as="offset" />
          </mxGeometry>
        </mxCell>
        <mxCell id="euLqYJspITLp8LQ8Xld8-13" style="edgeStyle=orthogonalEdgeStyle;rounded=0;orthogonalLoop=1;jettySize=auto;html=1;exitX=0.362;exitY=0.153;exitDx=0;exitDy=0;exitPerimeter=0;" parent="1" target="iu7yji1_OhGKNRIj4acc-1" edge="1" source="QjZfWIyiX181x9h4RjKt-1">
          <mxGeometry relative="1" as="geometry">
            <mxPoint x="579.97" y="123.03999999999996" as="targetPoint" />
            <mxPoint x="578" y="370" as="sourcePoint" />
            <Array as="points">
              <mxPoint x="570" y="370" />
              <mxPoint x="570" y="370" />
              <mxPoint x="570" y="110" />
            </Array>
          </mxGeometry>
        </mxCell>
        <mxCell id="euLqYJspITLp8LQ8Xld8-14" value="&lt;b&gt;&lt;font style=&quot;font-size: 12px;&quot;&gt;Ναι&lt;/font&gt;&lt;/b&gt;" style="edgeLabel;html=1;align=center;verticalAlign=middle;resizable=0;points=[];" parent="euLqYJspITLp8LQ8Xld8-13" vertex="1" connectable="0">
          <mxGeometry x="0.35" y="-4" relative="1" as="geometry">
            <mxPoint x="-4" y="5" as="offset" />
          </mxGeometry>
        </mxCell>
        <mxCell id="QjZfWIyiX181x9h4RjKt-1" value="Tags OK;" style="ellipse;shape=umlControl;whiteSpace=wrap;html=1;fontFamily=Helvetica;fontSize=11;fontColor=default;" parent="1" vertex="1">
          <mxGeometry x="545" y="370" width="70" height="80" as="geometry" />
        </mxCell>
        <mxCell id="euLqYJspITLp8LQ8Xld8-9" style="edgeStyle=orthogonalEdgeStyle;rounded=0;orthogonalLoop=1;jettySize=auto;html=1;" parent="1" source="euLqYJspITLp8LQ8Xld8-5" target="euLqYJspITLp8LQ8Xld8-8" edge="1">
          <mxGeometry relative="1" as="geometry" />
        </mxCell>
        <mxCell id="euLqYJspITLp8LQ8Xld8-5" value="Εμφάνισε μήνυμα μεγάλου μεγέθους" style="ellipse;shape=umlControl;whiteSpace=wrap;html=1;" parent="1" vertex="1">
          <mxGeometry x="640" y="979" width="76" height="80" as="geometry" />
        </mxCell>
        <mxCell id="euLqYJspITLp8LQ8Xld8-8" value="Οθόνη Επιλογής Πολυμέσων" style="shape=umlBoundary;whiteSpace=wrap;html=1;" parent="1" vertex="1">
          <mxGeometry x="750" y="979" width="100" height="80" as="geometry" />
        </mxCell>
        <mxCell id="j4cgpXzd5P3w1-xBL8ru-2" style="edgeStyle=orthogonalEdgeStyle;rounded=0;orthogonalLoop=1;jettySize=auto;html=1;" parent="1" source="Mwn1UTbKAgbpNBRwYGt4-1" target="j4cgpXzd5P3w1-xBL8ru-1" edge="1">
          <mxGeometry relative="1" as="geometry" />
        </mxCell>
        <mxCell id="Mwn1UTbKAgbpNBRwYGt4-1" value="Οθόνη επιβεβαίωσης ανάρτησης" style="shape=umlBoundary;whiteSpace=wrap;html=1;" parent="1" vertex="1">
          <mxGeometry x="250" y="50" width="100" height="80" as="geometry" />
        </mxCell>
        <mxCell id="iu7yji1_OhGKNRIj4acc-2" style="edgeStyle=orthogonalEdgeStyle;rounded=0;orthogonalLoop=1;jettySize=auto;html=1;entryX=0.98;entryY=0.375;entryDx=0;entryDy=0;entryPerimeter=0;" parent="1" source="iu7yji1_OhGKNRIj4acc-1" target="Mwn1UTbKAgbpNBRwYGt4-1" edge="1">
          <mxGeometry relative="1" as="geometry" />
        </mxCell>
        <mxCell id="iu7yji1_OhGKNRIj4acc-1" value="Εμφάνισε" style="ellipse;shape=umlControl;whiteSpace=wrap;html=1;" parent="1" vertex="1">
          <mxGeometry x="465" y="70" width="70" height="80" as="geometry" />
        </mxCell>
        <mxCell id="271vx31JBBbXIBqX39X_-1" style="edgeStyle=orthogonalEdgeStyle;rounded=0;orthogonalLoop=1;jettySize=auto;html=1;entryX=0.014;entryY=0.5;entryDx=0;entryDy=0;entryPerimeter=0;" parent="1" source="j4cgpXzd5P3w1-xBL8ru-1" target="iaoyuBIQVnjfQY8oGWuf-1" edge="1">
          <mxGeometry relative="1" as="geometry" />
        </mxCell>
        <mxCell id="271vx31JBBbXIBqX39X_-2" value="&lt;b&gt;&lt;font style=&quot;font-size: 12px;&quot;&gt;Ναι&lt;/font&gt;&lt;/b&gt;" style="edgeLabel;html=1;align=center;verticalAlign=middle;resizable=0;points=[];" parent="271vx31JBBbXIBqX39X_-1" vertex="1" connectable="0">
          <mxGeometry x="0.2691" y="-1" relative="1" as="geometry">
            <mxPoint x="30" as="offset" />
          </mxGeometry>
        </mxCell>
        <mxCell id="271vx31JBBbXIBqX39X_-8" style="edgeStyle=orthogonalEdgeStyle;rounded=0;orthogonalLoop=1;jettySize=auto;html=1;" parent="1" source="j4cgpXzd5P3w1-xBL8ru-1" target="271vx31JBBbXIBqX39X_-10" edge="1">
          <mxGeometry relative="1" as="geometry">
            <mxPoint x="520" y="-50" as="targetPoint" />
            <Array as="points">
              <mxPoint x="580" y="20" />
              <mxPoint x="580" y="123" />
            </Array>
          </mxGeometry>
        </mxCell>
        <mxCell id="271vx31JBBbXIBqX39X_-9" value="&lt;b&gt;&lt;font style=&quot;font-size: 12px;&quot;&gt;Οχι&lt;/font&gt;&lt;/b&gt;" style="edgeLabel;html=1;align=center;verticalAlign=middle;resizable=0;points=[];" parent="271vx31JBBbXIBqX39X_-8" vertex="1" connectable="0">
          <mxGeometry x="0.1478" y="-5" relative="1" as="geometry">
            <mxPoint y="13" as="offset" />
          </mxGeometry>
        </mxCell>
        <mxCell id="j4cgpXzd5P3w1-xBL8ru-1" value="Επιβεβαιωσε ο χειριστής;" style="ellipse;shape=umlControl;whiteSpace=wrap;html=1;fontFamily=Helvetica;fontSize=11;fontColor=default;" parent="1" vertex="1">
          <mxGeometry x="405" y="-20" width="70" height="80" as="geometry" />
        </mxCell>
        <mxCell id="271vx31JBBbXIBqX39X_-4" style="edgeStyle=orthogonalEdgeStyle;rounded=0;orthogonalLoop=1;jettySize=auto;html=1;" parent="1" source="iaoyuBIQVnjfQY8oGWuf-1" target="271vx31JBBbXIBqX39X_-3" edge="1">
          <mxGeometry relative="1" as="geometry" />
        </mxCell>
        <mxCell id="iaoyuBIQVnjfQY8oGWuf-1" value="Δημιούργησε" style="ellipse;shape=umlControl;whiteSpace=wrap;html=1;" parent="1" vertex="1">
          <mxGeometry x="640" y="-20" width="70" height="80" as="geometry" />
        </mxCell>
        <mxCell id="271vx31JBBbXIBqX39X_-6" style="edgeStyle=orthogonalEdgeStyle;rounded=0;orthogonalLoop=1;jettySize=auto;html=1;entryX=0.5;entryY=0.088;entryDx=0;entryDy=0;entryPerimeter=0;" parent="1" source="m8rGjnwMuM9x2wqX3TaD-1" target="e6xlIDOj_ymB1m37orpg-1" edge="1">
          <mxGeometry relative="1" as="geometry" />
        </mxCell>
        <mxCell id="m8rGjnwMuM9x2wqX3TaD-1" value="Αποθήκευσε" style="ellipse;shape=umlControl;whiteSpace=wrap;html=1;" parent="1" vertex="1">
          <mxGeometry x="745" y="94" width="70" height="80" as="geometry" />
        </mxCell>
        <mxCell id="271vx31JBBbXIBqX39X_-7" style="edgeStyle=orthogonalEdgeStyle;rounded=0;orthogonalLoop=1;jettySize=auto;html=1;" parent="1" source="e6xlIDOj_ymB1m37orpg-1" target="kZim0TZBEpI1AfgaR8-f-1" edge="1">
          <mxGeometry relative="1" as="geometry" />
        </mxCell>
        <mxCell id="e6xlIDOj_ymB1m37orpg-1" value="Εμφάνισε" style="ellipse;shape=umlControl;whiteSpace=wrap;html=1;" parent="1" vertex="1">
          <mxGeometry x="745" y="210" width="70" height="80" as="geometry" />
        </mxCell>
        <mxCell id="kZim0TZBEpI1AfgaR8-f-1" value="&lt;div&gt;Αρχική&lt;/div&gt;&lt;div&gt;Οθόνη&lt;br&gt;&lt;/div&gt;" style="shape=umlBoundary;whiteSpace=wrap;html=1;" parent="1" vertex="1">
          <mxGeometry x="620" y="210" width="100" height="80" as="geometry" />
        </mxCell>
        <mxCell id="271vx31JBBbXIBqX39X_-5" style="edgeStyle=orthogonalEdgeStyle;rounded=0;orthogonalLoop=1;jettySize=auto;html=1;entryX=0.5;entryY=0.163;entryDx=0;entryDy=0;entryPerimeter=0;" parent="1" source="271vx31JBBbXIBqX39X_-3" target="m8rGjnwMuM9x2wqX3TaD-1" edge="1">
          <mxGeometry relative="1" as="geometry" />
        </mxCell>
        <mxCell id="271vx31JBBbXIBqX39X_-3" value="Εικονική ξενάγηση" style="ellipse;shape=umlEntity;whiteSpace=wrap;html=1;" parent="1" vertex="1">
          <mxGeometry x="740" y="-20" width="80" height="80" as="geometry" />
        </mxCell>
        <mxCell id="271vx31JBBbXIBqX39X_-11" style="edgeStyle=orthogonalEdgeStyle;rounded=0;orthogonalLoop=1;jettySize=auto;html=1;entryX=0.5;entryY=0.025;entryDx=0;entryDy=0;entryPerimeter=0;" parent="1" source="271vx31JBBbXIBqX39X_-10" target="kZim0TZBEpI1AfgaR8-f-1" edge="1">
          <mxGeometry relative="1" as="geometry" />
        </mxCell>
        <mxCell id="271vx31JBBbXIBqX39X_-10" value="Αποθήκευσε&lt;br&gt;στο υπολογιστικό μέσο του χειριστή" style="ellipse;shape=umlControl;whiteSpace=wrap;html=1;" parent="1" vertex="1">
          <mxGeometry x="620" y="66" width="100" height="114" as="geometry" />
        </mxCell>
        <mxCell id="271vx31JBBbXIBqX39X_-14" style="edgeStyle=orthogonalEdgeStyle;rounded=0;orthogonalLoop=1;jettySize=auto;html=1;" parent="1" source="271vx31JBBbXIBqX39X_-12" target="8c1nbTiKgx0kHCpXewl8-1" edge="1">
          <mxGeometry relative="1" as="geometry" />
        </mxCell>
        <mxCell id="271vx31JBBbXIBqX39X_-15" value="&lt;b&gt;&lt;font style=&quot;font-size: 12px;&quot;&gt;Ναι&lt;/font&gt;&lt;/b&gt;" style="edgeLabel;html=1;align=center;verticalAlign=middle;resizable=0;points=[];" parent="271vx31JBBbXIBqX39X_-14" vertex="1" connectable="0">
          <mxGeometry x="0.8216" y="-3" relative="1" as="geometry">
            <mxPoint as="offset" />
          </mxGeometry>
        </mxCell>
        <mxCell id="271vx31JBBbXIBqX39X_-16" style="edgeStyle=orthogonalEdgeStyle;rounded=0;orthogonalLoop=1;jettySize=auto;html=1;" parent="1" source="271vx31JBBbXIBqX39X_-12" target="0z0tkoHrf9tsBHlPu7zB-1" edge="1">
          <mxGeometry relative="1" as="geometry">
            <Array as="points">
              <mxPoint x="690" y="810" />
            </Array>
          </mxGeometry>
        </mxCell>
        <mxCell id="271vx31JBBbXIBqX39X_-17" value="&lt;b&gt;Οχι&lt;/b&gt;" style="edgeLabel;html=1;align=center;verticalAlign=middle;resizable=0;points=[];" parent="271vx31JBBbXIBqX39X_-16" vertex="1" connectable="0">
          <mxGeometry x="0.0446" y="3" relative="1" as="geometry">
            <mxPoint x="-13" y="3" as="offset" />
          </mxGeometry>
        </mxCell>
        <mxCell id="271vx31JBBbXIBqX39X_-12" value="Τέλος επεξεργασίας?" style="ellipse;shape=umlControl;whiteSpace=wrap;html=1;" parent="1" vertex="1">
          <mxGeometry x="362" y="725" width="90" height="90" as="geometry" />
        </mxCell>
      </root>
    </mxGraphModel>
  </diagram>
  <diagram id="t4k0E-SABpgM97s7EL_-" name="Page-3">
    <mxGraphModel dx="609" dy="694" grid="1" gridSize="10" guides="1" tooltips="1" connect="1" arrows="1" fold="1" page="1" pageScale="1" pageWidth="850" pageHeight="1100" math="0" shadow="0">
      <root>
        <mxCell id="0" />
        <mxCell id="1" parent="0" />
        <mxCell id="RdPhc7EFlPakd53mFmWk-3" style="edgeStyle=orthogonalEdgeStyle;rounded=0;orthogonalLoop=1;jettySize=auto;html=1;" parent="1" source="485rjCYsF4bykk35fohO-1" target="8aYvebIrIMW1gFPimgRE-1" edge="1">
          <mxGeometry relative="1" as="geometry" />
        </mxCell>
        <mxCell id="RdPhc7EFlPakd53mFmWk-4" value="Επιλέγει&lt;br&gt;&amp;nbsp;εκδήλωση" style="edgeLabel;html=1;align=center;verticalAlign=middle;resizable=0;points=[];" parent="RdPhc7EFlPakd53mFmWk-3" vertex="1" connectable="0">
          <mxGeometry x="0.1625" y="-5" relative="1" as="geometry">
            <mxPoint y="13" as="offset" />
          </mxGeometry>
        </mxCell>
        <mxCell id="NXZrL_3qnQfTrOwrGrDA-2" style="edgeStyle=orthogonalEdgeStyle;rounded=0;orthogonalLoop=1;jettySize=auto;html=1;" parent="1" source="485rjCYsF4bykk35fohO-1" target="NXZrL_3qnQfTrOwrGrDA-1" edge="1">
          <mxGeometry relative="1" as="geometry" />
        </mxCell>
        <mxCell id="NXZrL_3qnQfTrOwrGrDA-3" value="Επιλέγει κριτήρια &lt;br&gt;αναζήτησης" style="edgeLabel;html=1;align=center;verticalAlign=middle;resizable=0;points=[];" parent="NXZrL_3qnQfTrOwrGrDA-2" vertex="1" connectable="0">
          <mxGeometry x="0.17" y="3" relative="1" as="geometry">
            <mxPoint x="7" y="-27" as="offset" />
          </mxGeometry>
        </mxCell>
        <mxCell id="NXZrL_3qnQfTrOwrGrDA-12" style="edgeStyle=orthogonalEdgeStyle;rounded=0;orthogonalLoop=1;jettySize=auto;html=1;entryX=-0.01;entryY=0.488;entryDx=0;entryDy=0;entryPerimeter=0;" parent="1" source="485rjCYsF4bykk35fohO-1" target="NXZrL_3qnQfTrOwrGrDA-8" edge="1">
          <mxGeometry relative="1" as="geometry" />
        </mxCell>
        <mxCell id="NXZrL_3qnQfTrOwrGrDA-13" value="Εγγράφεται στην&lt;br&gt;&amp;nbsp;εκδήλωση" style="edgeLabel;html=1;align=center;verticalAlign=middle;resizable=0;points=[];" parent="NXZrL_3qnQfTrOwrGrDA-12" vertex="1" connectable="0">
          <mxGeometry x="0.283" y="2" relative="1" as="geometry">
            <mxPoint as="offset" />
          </mxGeometry>
        </mxCell>
        <mxCell id="BCX9HXl51WvZ3bwdL8ku-7" style="edgeStyle=orthogonalEdgeStyle;rounded=0;orthogonalLoop=1;jettySize=auto;html=1;entryX=0.008;entryY=0.51;entryDx=0;entryDy=0;entryPerimeter=0;" parent="1" source="485rjCYsF4bykk35fohO-1" target="NXZrL_3qnQfTrOwrGrDA-16" edge="1">
          <mxGeometry relative="1" as="geometry" />
        </mxCell>
        <mxCell id="BCX9HXl51WvZ3bwdL8ku-8" value="Επιλέγει συγκεκριμένη &lt;br&gt;ημερομηνία και ώρα" style="edgeLabel;html=1;align=center;verticalAlign=middle;resizable=0;points=[];" parent="BCX9HXl51WvZ3bwdL8ku-7" vertex="1" connectable="0">
          <mxGeometry x="0.4154" y="-3" relative="1" as="geometry">
            <mxPoint as="offset" />
          </mxGeometry>
        </mxCell>
        <mxCell id="MpqgmqiErPWoHgp3vNXM-6" style="edgeStyle=orthogonalEdgeStyle;rounded=0;orthogonalLoop=1;jettySize=auto;html=1;entryX=0.008;entryY=0.47;entryDx=0;entryDy=0;entryPerimeter=0;" parent="1" source="485rjCYsF4bykk35fohO-1" target="MpqgmqiErPWoHgp3vNXM-4" edge="1">
          <mxGeometry relative="1" as="geometry" />
        </mxCell>
        <mxCell id="MpqgmqiErPWoHgp3vNXM-7" value="Αντιγραφή συνδέσμου" style="edgeLabel;html=1;align=center;verticalAlign=middle;resizable=0;points=[];" parent="MpqgmqiErPWoHgp3vNXM-6" vertex="1" connectable="0">
          <mxGeometry x="0.5439" y="1" relative="1" as="geometry">
            <mxPoint as="offset" />
          </mxGeometry>
        </mxCell>
        <mxCell id="485rjCYsF4bykk35fohO-1" value="&amp;nbsp;Απλός Χρήστης" style="shape=umlActor;verticalLabelPosition=bottom;verticalAlign=top;html=1;outlineConnect=0;" parent="1" vertex="1">
          <mxGeometry x="30" y="280" width="50" height="100" as="geometry" />
        </mxCell>
        <mxCell id="NXZrL_3qnQfTrOwrGrDA-10" style="edgeStyle=orthogonalEdgeStyle;rounded=0;orthogonalLoop=1;jettySize=auto;html=1;" parent="1" source="8aYvebIrIMW1gFPimgRE-1" target="NXZrL_3qnQfTrOwrGrDA-9" edge="1">
          <mxGeometry relative="1" as="geometry">
            <Array as="points">
              <mxPoint x="330" y="260" />
              <mxPoint x="330" y="260" />
            </Array>
          </mxGeometry>
        </mxCell>
        <mxCell id="8aYvebIrIMW1gFPimgRE-1" value="Οθόνη Διαθέσιμων εκδηλώσεων" style="shape=umlBoundary;whiteSpace=wrap;html=1;" parent="1" vertex="1">
          <mxGeometry x="200" y="250" width="100" height="80" as="geometry" />
        </mxCell>
        <mxCell id="RdPhc7EFlPakd53mFmWk-2" style="edgeStyle=orthogonalEdgeStyle;rounded=0;orthogonalLoop=1;jettySize=auto;html=1;" parent="1" source="RdPhc7EFlPakd53mFmWk-1" target="8aYvebIrIMW1gFPimgRE-1" edge="1">
          <mxGeometry relative="1" as="geometry" />
        </mxCell>
        <mxCell id="NXZrL_3qnQfTrOwrGrDA-4" style="edgeStyle=orthogonalEdgeStyle;rounded=0;orthogonalLoop=1;jettySize=auto;html=1;" parent="1" source="RdPhc7EFlPakd53mFmWk-1" target="NXZrL_3qnQfTrOwrGrDA-1" edge="1">
          <mxGeometry relative="1" as="geometry">
            <Array as="points">
              <mxPoint x="315" y="350" />
              <mxPoint x="250" y="350" />
            </Array>
          </mxGeometry>
        </mxCell>
        <mxCell id="RdPhc7EFlPakd53mFmWk-1" value="Εμφάνισε" style="ellipse;shape=umlControl;whiteSpace=wrap;html=1;" parent="1" vertex="1">
          <mxGeometry x="280" y="130" width="70" height="80" as="geometry" />
        </mxCell>
        <mxCell id="NXZrL_3qnQfTrOwrGrDA-6" style="edgeStyle=orthogonalEdgeStyle;rounded=0;orthogonalLoop=1;jettySize=auto;html=1;entryX=0.014;entryY=0.538;entryDx=0;entryDy=0;entryPerimeter=0;" parent="1" source="NXZrL_3qnQfTrOwrGrDA-1" target="NXZrL_3qnQfTrOwrGrDA-5" edge="1">
          <mxGeometry relative="1" as="geometry" />
        </mxCell>
        <mxCell id="NXZrL_3qnQfTrOwrGrDA-1" value="Οθόνη Επιλογής κριτηρίων αναζήτσης" style="shape=umlBoundary;whiteSpace=wrap;html=1;" parent="1" vertex="1">
          <mxGeometry x="200" y="370" width="100" height="80" as="geometry" />
        </mxCell>
        <mxCell id="NXZrL_3qnQfTrOwrGrDA-7" style="edgeStyle=orthogonalEdgeStyle;rounded=0;orthogonalLoop=1;jettySize=auto;html=1;" parent="1" source="NXZrL_3qnQfTrOwrGrDA-5" target="8aYvebIrIMW1gFPimgRE-1" edge="1">
          <mxGeometry relative="1" as="geometry">
            <Array as="points">
              <mxPoint x="375" y="290" />
            </Array>
          </mxGeometry>
        </mxCell>
        <mxCell id="NXZrL_3qnQfTrOwrGrDA-5" value="Αναναίωσε" style="ellipse;shape=umlControl;whiteSpace=wrap;html=1;" parent="1" vertex="1">
          <mxGeometry x="340" y="367" width="70" height="80" as="geometry" />
        </mxCell>
        <mxCell id="BCX9HXl51WvZ3bwdL8ku-2" style="edgeStyle=orthogonalEdgeStyle;rounded=0;orthogonalLoop=1;jettySize=auto;html=1;entryX=0.571;entryY=0;entryDx=0;entryDy=0;entryPerimeter=0;" parent="1" source="NXZrL_3qnQfTrOwrGrDA-8" target="BCX9HXl51WvZ3bwdL8ku-1" edge="1">
          <mxGeometry relative="1" as="geometry" />
        </mxCell>
        <mxCell id="NXZrL_3qnQfTrOwrGrDA-8" value="Οθόνη Λεπτομερών στοιχείων Εκδήλωσης" style="shape=umlBoundary;whiteSpace=wrap;html=1;" parent="1" vertex="1">
          <mxGeometry x="200" y="490" width="100" height="80" as="geometry" />
        </mxCell>
        <mxCell id="NXZrL_3qnQfTrOwrGrDA-11" style="edgeStyle=orthogonalEdgeStyle;rounded=0;orthogonalLoop=1;jettySize=auto;html=1;" parent="1" source="NXZrL_3qnQfTrOwrGrDA-9" target="NXZrL_3qnQfTrOwrGrDA-8" edge="1">
          <mxGeometry relative="1" as="geometry">
            <Array as="points">
              <mxPoint x="445" y="530" />
            </Array>
          </mxGeometry>
        </mxCell>
        <mxCell id="NXZrL_3qnQfTrOwrGrDA-9" value="Εμφάνισε" style="ellipse;shape=umlControl;whiteSpace=wrap;html=1;" parent="1" vertex="1">
          <mxGeometry x="400" y="220" width="70" height="80" as="geometry" />
        </mxCell>
        <mxCell id="NXZrL_3qnQfTrOwrGrDA-17" style="edgeStyle=orthogonalEdgeStyle;rounded=0;orthogonalLoop=1;jettySize=auto;html=1;" parent="1" source="NXZrL_3qnQfTrOwrGrDA-14" target="NXZrL_3qnQfTrOwrGrDA-16" edge="1">
          <mxGeometry relative="1" as="geometry" />
        </mxCell>
        <mxCell id="NXZrL_3qnQfTrOwrGrDA-14" value="Εμφάνισε" style="ellipse;shape=umlControl;whiteSpace=wrap;html=1;" parent="1" vertex="1">
          <mxGeometry x="340" y="705" width="70" height="80" as="geometry" />
        </mxCell>
        <mxCell id="BCX9HXl51WvZ3bwdL8ku-10" style="edgeStyle=orthogonalEdgeStyle;rounded=0;orthogonalLoop=1;jettySize=auto;html=1;entryX=0.3;entryY=0.175;entryDx=0;entryDy=0;entryPerimeter=0;" parent="1" source="NXZrL_3qnQfTrOwrGrDA-16" target="BCX9HXl51WvZ3bwdL8ku-9" edge="1">
          <mxGeometry relative="1" as="geometry" />
        </mxCell>
        <mxCell id="NXZrL_3qnQfTrOwrGrDA-16" value="Οθόνη Διαθέσιμων ώρων και ημερομηνιών" style="shape=umlBoundary;whiteSpace=wrap;html=1;" parent="1" vertex="1">
          <mxGeometry x="200" y="695" width="120" height="100" as="geometry" />
        </mxCell>
        <mxCell id="BCX9HXl51WvZ3bwdL8ku-5" style="edgeStyle=orthogonalEdgeStyle;rounded=0;orthogonalLoop=1;jettySize=auto;html=1;entryX=0.486;entryY=0.188;entryDx=0;entryDy=0;entryPerimeter=0;" parent="1" source="BCX9HXl51WvZ3bwdL8ku-1" target="NXZrL_3qnQfTrOwrGrDA-14" edge="1">
          <mxGeometry relative="1" as="geometry">
            <Array as="points">
              <mxPoint x="376" y="670" />
              <mxPoint x="376" y="670" />
            </Array>
          </mxGeometry>
        </mxCell>
        <mxCell id="BCX9HXl51WvZ3bwdL8ku-6" value="&lt;b&gt;&lt;font style=&quot;font-size: 12px;&quot;&gt;Οχι&lt;/font&gt;&lt;/b&gt;" style="edgeLabel;html=1;align=center;verticalAlign=middle;resizable=0;points=[];" parent="BCX9HXl51WvZ3bwdL8ku-5" vertex="1" connectable="0">
          <mxGeometry x="-0.2023" relative="1" as="geometry">
            <mxPoint as="offset" />
          </mxGeometry>
        </mxCell>
        <mxCell id="cA_QYkyTXe2NhLURIJ-S-3" style="edgeStyle=orthogonalEdgeStyle;rounded=0;orthogonalLoop=1;jettySize=auto;html=1;" parent="1" source="BCX9HXl51WvZ3bwdL8ku-1" edge="1">
          <mxGeometry relative="1" as="geometry">
            <mxPoint x="484" y="600" as="targetPoint" />
          </mxGeometry>
        </mxCell>
        <mxCell id="cA_QYkyTXe2NhLURIJ-S-4" value="&lt;b&gt;&lt;font style=&quot;font-size: 12px;&quot;&gt;Ναι&lt;/font&gt;&lt;/b&gt;" style="edgeLabel;html=1;align=center;verticalAlign=middle;resizable=0;points=[];" parent="cA_QYkyTXe2NhLURIJ-S-3" vertex="1" connectable="0">
          <mxGeometry x="0.25" y="-3" relative="1" as="geometry">
            <mxPoint x="-15" y="-3" as="offset" />
          </mxGeometry>
        </mxCell>
        <mxCell id="BCX9HXl51WvZ3bwdL8ku-1" value="Εισήγαγε invite link ?" style="ellipse;shape=umlControl;whiteSpace=wrap;html=1;" parent="1" vertex="1">
          <mxGeometry x="340" y="560" width="70" height="80" as="geometry" />
        </mxCell>
        <mxCell id="6gQCje3aT5bfTaFtWArD-2" style="edgeStyle=orthogonalEdgeStyle;rounded=0;orthogonalLoop=1;jettySize=auto;html=1;" parent="1" source="BCX9HXl51WvZ3bwdL8ku-9" target="6gQCje3aT5bfTaFtWArD-1" edge="1">
          <mxGeometry relative="1" as="geometry">
            <Array as="points">
              <mxPoint x="360" y="868" />
              <mxPoint x="360" y="820" />
            </Array>
          </mxGeometry>
        </mxCell>
        <mxCell id="6gQCje3aT5bfTaFtWArD-3" value="&lt;b&gt;&lt;font style=&quot;font-size: 12px;&quot;&gt;Οχι&lt;/font&gt;&lt;/b&gt;" style="edgeLabel;html=1;align=center;verticalAlign=middle;resizable=0;points=[];" parent="6gQCje3aT5bfTaFtWArD-2" vertex="1" connectable="0">
          <mxGeometry x="-0.2745" y="1" relative="1" as="geometry">
            <mxPoint y="-24" as="offset" />
          </mxGeometry>
        </mxCell>
        <mxCell id="6gQCje3aT5bfTaFtWArD-4" style="edgeStyle=orthogonalEdgeStyle;rounded=0;orthogonalLoop=1;jettySize=auto;html=1;entryX=0.029;entryY=0.375;entryDx=0;entryDy=0;entryPerimeter=0;" parent="1" source="BCX9HXl51WvZ3bwdL8ku-9" target="MpqgmqiErPWoHgp3vNXM-1" edge="1">
          <mxGeometry relative="1" as="geometry">
            <mxPoint x="430" y="868" as="targetPoint" />
            <Array as="points">
              <mxPoint x="360" y="868" />
              <mxPoint x="360" y="920" />
            </Array>
          </mxGeometry>
        </mxCell>
        <mxCell id="6gQCje3aT5bfTaFtWArD-5" value="&lt;b style=&quot;font-size: 12px;&quot;&gt;Ναι&lt;/b&gt;" style="edgeLabel;html=1;align=center;verticalAlign=middle;resizable=0;points=[];fontSize=12;" parent="6gQCje3aT5bfTaFtWArD-4" vertex="1" connectable="0">
          <mxGeometry x="0.2397" y="-2" relative="1" as="geometry">
            <mxPoint y="-16" as="offset" />
          </mxGeometry>
        </mxCell>
        <mxCell id="BCX9HXl51WvZ3bwdL8ku-9" value="Ο χρήστης επιβεβαιώνει εγγαφή ?" style="ellipse;shape=umlControl;whiteSpace=wrap;html=1;" parent="1" vertex="1">
          <mxGeometry x="239" y="828" width="70" height="80" as="geometry" />
        </mxCell>
        <mxCell id="6gQCje3aT5bfTaFtWArD-1" value="&lt;div&gt;Αρχική&lt;/div&gt;&lt;div&gt;Οθόνη&lt;br&gt;&lt;/div&gt;" style="shape=umlBoundary;whiteSpace=wrap;html=1;" parent="1" vertex="1">
          <mxGeometry x="410" y="780" width="100" height="80" as="geometry" />
        </mxCell>
        <mxCell id="MpqgmqiErPWoHgp3vNXM-3" style="edgeStyle=orthogonalEdgeStyle;rounded=0;orthogonalLoop=1;jettySize=auto;html=1;entryX=0.557;entryY=0.138;entryDx=0;entryDy=0;entryPerimeter=0;" parent="1" source="MpqgmqiErPWoHgp3vNXM-1" target="MpqgmqiErPWoHgp3vNXM-2" edge="1">
          <mxGeometry relative="1" as="geometry" />
        </mxCell>
        <mxCell id="MpqgmqiErPWoHgp3vNXM-9" style="edgeStyle=orthogonalEdgeStyle;rounded=0;orthogonalLoop=1;jettySize=auto;html=1;" parent="1" source="MpqgmqiErPWoHgp3vNXM-1" target="MpqgmqiErPWoHgp3vNXM-8" edge="1">
          <mxGeometry relative="1" as="geometry" />
        </mxCell>
        <mxCell id="MpqgmqiErPWoHgp3vNXM-1" value="Αποθήκευσε&lt;br&gt;συμμετοχή" style="ellipse;shape=umlControl;whiteSpace=wrap;html=1;" parent="1" vertex="1">
          <mxGeometry x="414" y="890" width="70" height="80" as="geometry" />
        </mxCell>
        <mxCell id="MpqgmqiErPWoHgp3vNXM-5" style="edgeStyle=orthogonalEdgeStyle;rounded=0;orthogonalLoop=1;jettySize=auto;html=1;" parent="1" source="MpqgmqiErPWoHgp3vNXM-2" target="MpqgmqiErPWoHgp3vNXM-4" edge="1">
          <mxGeometry relative="1" as="geometry" />
        </mxCell>
        <mxCell id="MpqgmqiErPWoHgp3vNXM-2" value="Εμφάνισε" style="ellipse;shape=umlControl;whiteSpace=wrap;html=1;" parent="1" vertex="1">
          <mxGeometry x="410" y="990" width="70" height="80" as="geometry" />
        </mxCell>
        <mxCell id="MpqgmqiErPWoHgp3vNXM-4" value="Οθόνη με το Προσωπικό invite link" style="shape=umlBoundary;whiteSpace=wrap;html=1;" parent="1" vertex="1">
          <mxGeometry x="200" y="980" width="120" height="100" as="geometry" />
        </mxCell>
        <mxCell id="cA_QYkyTXe2NhLURIJ-S-2" style="edgeStyle=orthogonalEdgeStyle;rounded=0;orthogonalLoop=1;jettySize=auto;html=1;entryX=0;entryY=0.5;entryDx=0;entryDy=0;" parent="1" source="MpqgmqiErPWoHgp3vNXM-8" target="cA_QYkyTXe2NhLURIJ-S-1" edge="1">
          <mxGeometry relative="1" as="geometry" />
        </mxCell>
        <mxCell id="MpqgmqiErPWoHgp3vNXM-8" value="Αναναίωσε στατιστικά δημοτικότηατς" style="ellipse;shape=umlControl;whiteSpace=wrap;html=1;" parent="1" vertex="1">
          <mxGeometry x="520" y="885" width="90" height="90" as="geometry" />
        </mxCell>
        <mxCell id="cA_QYkyTXe2NhLURIJ-S-1" value="Event" style="ellipse;shape=umlEntity;whiteSpace=wrap;html=1;" parent="1" vertex="1">
          <mxGeometry x="650" y="890" width="80" height="80" as="geometry" />
        </mxCell>
        <mxCell id="cA_QYkyTXe2NhLURIJ-S-9" style="edgeStyle=orthogonalEdgeStyle;rounded=0;orthogonalLoop=1;jettySize=auto;html=1;" parent="1" source="cA_QYkyTXe2NhLURIJ-S-6" target="cA_QYkyTXe2NhLURIJ-S-7" edge="1">
          <mxGeometry relative="1" as="geometry" />
        </mxCell>
        <mxCell id="cA_QYkyTXe2NhLURIJ-S-11" style="edgeStyle=orthogonalEdgeStyle;rounded=0;orthogonalLoop=1;jettySize=auto;html=1;" parent="1" source="cA_QYkyTXe2NhLURIJ-S-6" target="MpqgmqiErPWoHgp3vNXM-1" edge="1">
          <mxGeometry relative="1" as="geometry">
            <Array as="points">
              <mxPoint x="524" y="870" />
              <mxPoint x="449" y="870" />
            </Array>
          </mxGeometry>
        </mxCell>
        <mxCell id="cA_QYkyTXe2NhLURIJ-S-6" value="Αναναίωσε score" style="ellipse;shape=umlControl;whiteSpace=wrap;html=1;" parent="1" vertex="1">
          <mxGeometry x="484" y="560" width="80" height="80" as="geometry" />
        </mxCell>
        <mxCell id="cA_QYkyTXe2NhLURIJ-S-7" value="User" style="ellipse;shape=umlEntity;whiteSpace=wrap;html=1;" parent="1" vertex="1">
          <mxGeometry x="609" y="560" width="80" height="80" as="geometry" />
        </mxCell>
      </root>
    </mxGraphModel>
  </diagram>
</mxfile>
